<?xml version="1.0" encoding="UTF-8" standalone="no"?>
<!DOCTYPE svg PUBLIC "-//W3C//DTD SVG 1.1//EN" "http://www.w3.org/Graphics/SVG/1.1/DTD/svg11.dtd">
<svg xmlns="http://www.w3.org/2000/svg" version="1.1" viewBox="0.00 0.00 527.00 403.00">
<path fill="#6790f2" d="   M 299.18 154.26   L 263.08 118.28   A 0.49 0.49 0.0 0 0 262.38 118.28   L 255.99 124.66   A 0.49 0.49 0.0 0 0 255.99 125.36   L 284.86 154.23   A 0.49 0.49 0.0 0 1 284.86 154.93   L 263.07 176.50   A 0.49 0.49 0.0 0 1 262.38 176.50   L 211.08 125.20   A 0.49 0.49 0.0 0 1 211.08 124.50   L 262.31 73.39   A 0.49 0.49 0.0 0 1 263.01 73.39   L 329.27 139.64   A 0.49 0.49 0.0 0 1 329.26 140.34   L 322.18 147.12   A 0.49 0.49 0.0 0 1 321.49 147.11   L 263.09 88.73   A 0.49 0.49 0.0 0 0 262.39 88.72   L 226.34 124.51   A 0.49 0.49 0.0 0 0 226.34 125.21   L 262.53 161.40   A 0.49 0.49 0.0 0 0 263.23 161.40   L 269.59 155.03   A 0.49 0.49 0.0 0 0 269.59 154.33   L 240.60 125.41   A 0.49 0.49 0.0 0 1 240.60 124.71   L 262.31 103.08   A 0.49 0.49 0.0 0 1 263.01 103.08   L 314.40 154.31   A 0.49 0.49 0.0 0 1 314.40 155.01   L 263.10 206.26   A 0.49 0.49 0.0 0 1 262.40 206.26   L 196.18 140.06   A 0.49 0.49 0.0 0 1 196.19 139.36   L 203.24 132.55   A 0.49 0.49 0.0 0 1 203.93 132.56   L 262.40 191.02   A 0.49 0.49 0.0 0 0 263.10 191.02   L 299.18 154.96   A 0.49 0.49 0.0 0 0 299.18 154.26   Z"/>
<path fill="#6790f2" d="   M 260.53 315.50   L 245.54 315.50   A 0.54 0.54 0.0 0 1 245.04 314.75   L 275.11 244.62   A 0.54 0.54 0.0 0 1 275.61 244.29   L 290.20 244.45   A 0.54 0.54 0.0 0 1 290.69 244.77   L 314.21 299.68   A 0.54 0.54 0.0 0 1 313.72 300.44   L 298.84 300.53   A 0.54 0.54 0.0 0 1 298.34 300.20   L 283.44 265.72   A 0.54 0.54 0.0 0 0 282.44 265.72   L 261.02 315.17   A 0.54 0.54 0.0 0 1 260.53 315.50   Z"/>
<path fill="#6790f2" d="   M 120.68 258.75   Q 108.73 259.00 96.65 258.68   Q 96.00 258.66 96.00 258.00   L 96.00 245.76   A 0.75 0.74 -90.0 0 1 96.74 245.01   L 122.58 244.97   Q 123.69 244.97 123.72 246.08   L 124.07 258.16   A 0.98 0.98 0.0 0 1 122.79 259.12   Q 121.57 258.74 120.68 258.75   Z"/>
<path fill="#6790f2" d="   M 149.06 277.54   L 177.49 314.45   A 0.65 0.65 0.0 0 1 176.97 315.50   L 160.27 315.50   Q 159.84 315.50 159.58 315.16   L 135.80 284.28   Q 135.49 283.88 135.49 283.37   C 135.51 279.49 134.49 270.80 137.06 267.91   Q 147.16 256.54 157.13 245.06   Q 157.48 244.66 158.00 244.70   Q 165.76 245.34 173.53 244.74   Q 175.94 244.56 174.39 246.41   Q 162.54 260.64 150.51 274.02   Q 149.49 275.15 148.93 276.51   Q 148.69 277.07 149.06 277.54   Z"/>
<path fill="#6790f2" d="   M 339.27 244.90   L 352.79 244.98   Q 353.26 244.98 353.25 245.44   Q 353.18 249.28 352.24 254.00   Q 347.87 276.00 343.66 298.03   Q 342.02 306.59 339.99 315.07   Q 339.88 315.50 339.44 315.50   L 325.48 315.50   Q 324.96 315.50 325.06 314.99   L 338.54 245.49   Q 338.66 244.90 339.27 244.90   Z"/>
<path fill="#6790f2" d="   M 393.74 273.24   L 378.46 314.79   Q 378.21 315.48 377.48 315.48   L 365.39 315.54   A 1.18 1.18 0.0 0 1 364.29 314.78   L 356.09 292.86   Q 355.88 292.31 355.99 291.73   L 360.77 267.69   A 0.56 0.56 0.0 0 1 361.84 267.60   L 371.07 291.97   A 0.36 0.36 0.0 0 0 371.75 291.97   L 389.03 245.61   A 1.30 1.29 11.7 0 1 390.33 244.77   Q 396.07 245.15 402.24 244.98   Q 404.30 244.93 404.58 246.43   Q 410.94 280.66 417.21 314.90   Q 417.32 315.50 416.72 315.50   L 402.69 315.50   Q 402.34 315.50 402.27 315.15   L 394.36 273.29   Q 394.15 272.14 393.74 273.24   Z"/>
<path fill="#6790f2" d="   M 207.14 263.27   C 208.54 265.96 211.19 267.72 213.45 269.66   C 220.93 276.10 234.38 282.95 235.39 293.52   C 235.92 299.05 235.56 304.28 231.46 308.41   C 219.04 320.90 197.74 316.95 189.65 301.42   A 0.74 0.73 -28.6 0 1 189.94 300.45   L 200.69 294.38   Q 201.18 294.11 201.52 294.56   Q 205.25 299.58 208.56 301.66   C 216.67 306.77 227.05 297.71 217.17 290.22   C 208.88 283.94 197.77 277.31 193.57 267.46   C 188.70 256.07 201.89 244.62 212.70 246.35   Q 213.20 246.43 213.19 246.93   L 212.93 257.37   Q 212.91 257.86 212.48 258.08   C 210.17 259.25 207.93 259.43 207.05 262.31   Q 206.90 262.81 207.14 263.27   Z"/>
<rect fill="#6790f2" x="96.00" y="270.50" width="27.76" height="14.26" rx="0.59"/>
<rect fill="#6790f2" x="-13.96" y="-6.89" transform="translate(109.96,308.61) rotate(-0.1)" width="27.92" height="13.78" rx="0.61"/>
</svg>